<?xml version="1.0" encoding="iso-8859-1"?>
<!-- Generator: Adobe Illustrator 18.0.0, SVG Export Plug-In . SVG Version: 6.00 Build 0)  -->
<!DOCTYPE svg PUBLIC "-//W3C//DTD SVG 1.1//EN" "http://www.w3.org/Graphics/SVG/1.1/DTD/svg11.dtd">
<svg xmlns="http://www.w3.org/2000/svg" xmlns:xlink="http://www.w3.org/1999/xlink" version="1.1" id="Capa_1" x="0px" y="0px" viewBox="0 0 369.533 369.533" style="enable-background:new 0 0 369.533 369.533;" xml:space="preserve" width="512px" height="512px">
<g>
	<g>
		<g>
			<g>
				<circle cx="86.242" cy="157.864" r="18.25" fill="#FFFFFF"/>
			</g>
		</g>
		<g>
			<g>
				<path d="M258.992,172.864h-123c-8.284,0-15-6.716-15-15c0-8.284,6.716-15,15-15h123c8.284,0,15,6.716,15,15      C273.992,166.148,267.276,172.864,258.992,172.864z" fill="#FFFFFF"/>
			</g>
		</g>
		<g>
			<g>
				<circle cx="86.242" cy="217.864" r="18.25" fill="#FFFFFF"/>
			</g>
		</g>
		<g>
			<g>
				<path d="M258.992,232.864h-123c-8.284,0-15-6.716-15-15c0-8.284,6.716-15,15-15h123c8.284,0,15,6.716,15,15      C273.992,226.148,267.276,232.864,258.992,232.864z" fill="#FFFFFF"/>
			</g>
		</g>
	</g>
	<g>
		<path d="M349.533,266.614h-15.025v-15.025c0-11.028-8.972-20-20-20c-11.028,0-20,8.972-20,20v15.025h-15.025    c-11.028,0-20,8.972-20,20c0,11.028,8.972,20,20,20h15.025v15.025c0,11.028,8.972,20,20,20c11.028,0,20-8.972,20-20v-15.025    h15.025c11.028,0,20-8.972,20-20C369.533,275.586,360.561,266.614,349.533,266.614z" fill="#FFFFFF"/>
		<g>
			<path d="M239.482,286.614c0-3.193,0.376-6.301,1.087-9.279H20V104.894h286.984V212.3c2.438-0.467,4.952-0.711,7.523-0.711     c4.355,0,8.548,0.705,12.477,1.999V37.894c0-5.524-4.479-10-10-10H10c-5.523,0-10,4.476-10,10v249.441c0,5.523,4.477,10,10,10     h230.948C239.997,293.921,239.482,290.327,239.482,286.614z" fill="#FFFFFF"/>
		</g>
	</g>
</g>
<g>
</g>
<g>
</g>
<g>
</g>
<g>
</g>
<g>
</g>
<g>
</g>
<g>
</g>
<g>
</g>
<g>
</g>
<g>
</g>
<g>
</g>
<g>
</g>
<g>
</g>
<g>
</g>
<g>
</g>
</svg>
